<svg width="512" height="512" viewBox="0 0 512 512" fill="none" xmlns="http://www.w3.org/2000/svg">
<g clip-path="url(#clip0_10_24)">
<path d="M0 256C0 114.615 114.615 0 256 0C397.385 0 512 114.615 512 256C512 397.385 397.385 512 256 512C114.615 512 0 397.385 0 256Z" fill="white"/>
<circle cx="256" cy="256" r="256" fill="#FAFAFA"/>
<path d="M94.8 363V150H233.1V179.7H110.1L127.2 162V259.8L110.1 244.5H227.7V273.3H110.1L127.2 258V363H94.8ZM350.018 367.8C333.018 367.8 318.218 364.7 305.618 358.5C293.218 352.3 283.418 343.7 276.218 332.7C269.018 321.7 264.818 308.9 263.618 294.3L296.918 292.2C298.318 302.2 301.218 310.7 305.618 317.7C310.018 324.5 315.918 329.7 323.318 333.3C330.918 336.7 340.018 338.4 350.618 338.4C359.818 338.4 367.618 337.3 374.018 335.1C380.618 332.7 385.618 329.2 389.018 324.6C392.418 320 394.118 314.4 394.118 307.8C394.118 301.8 392.618 296.5 389.618 291.9C386.818 287.1 381.318 282.8 373.118 279C365.118 275 353.318 271.1 337.718 267.3C320.718 263.1 307.118 258.5 296.918 253.5C286.718 248.5 279.318 242.3 274.718 234.9C270.318 227.3 268.118 218 268.118 207C268.118 194.8 271.018 184.1 276.818 174.9C282.818 165.5 291.318 158.2 302.318 153C313.318 147.8 326.518 145.2 341.918 145.2C358.118 145.2 371.918 148.2 383.318 154.2C394.918 160.2 404.018 168.4 410.618 178.8C417.418 189.2 421.618 201.1 423.218 214.5L389.918 216.3C388.918 208.1 386.418 200.9 382.418 194.7C378.418 188.3 373.018 183.4 366.218 180C359.418 176.4 351.118 174.6 341.318 174.6C328.918 174.6 319.118 177.5 311.918 183.3C304.918 188.9 301.418 196.4 301.418 205.8C301.418 211.8 302.818 216.9 305.618 221.1C308.618 225.1 313.818 228.6 321.218 231.6C328.818 234.6 339.518 237.8 353.318 241.2C371.718 245.4 386.318 250.6 397.118 256.8C408.118 262.8 415.918 269.9 420.518 278.1C425.118 286.3 427.418 295.6 427.418 306C427.418 318.6 424.118 329.6 417.518 339C411.118 348.2 402.118 355.3 390.518 360.3C378.918 365.3 365.418 367.8 350.018 367.8Z" fill="#171717"/>
</g>
<defs>
<clipPath id="clip0_10_24">
<path d="M0 256C0 114.615 114.615 0 256 0C397.385 0 512 114.615 512 256C512 397.385 397.385 512 256 512C114.615 512 0 397.385 0 256Z" fill="white"/>
</clipPath>
</defs>
</svg>
